<?xml version="1.0" encoding="utf-8"?>
<!-- Generator: Adobe Illustrator 16.0.0, SVG Export Plug-In . SVG Version: 6.00 Build 0)  -->
<!DOCTYPE svg PUBLIC "-//W3C//DTD SVG 1.1//EN" "http://www.w3.org/Graphics/SVG/1.1/DTD/svg11.dtd">
<svg version="1.1" id="Layer_1" xmlns="http://www.w3.org/2000/svg" xmlns:xlink="http://www.w3.org/1999/xlink" x="0px" y="0px"
	 width="400px" height="200px" viewBox="0 0 400 200" enable-background="new 0 0 400 200" xml:space="preserve">
<g>
	<g>
		<path fill="#FFFFFF" d="M245.021,21.517c-5.996,0.024-9.526-4.132-13.257-6.016c-1.02-0.514-1.569-1.392-2.939-1.664
			c-1.473,0.049-2.946,0.09-4.419,0.128c-2.693-0.17-4.663-1.011-7.257-1.298c-7.658-0.846-9.604,1.155-13.904,3.42
			c-1.56,0.17-2.795,0.599-3.706,1.284c-1.383,0.851-0.343,1.854-2.146,2.732c-2.062,1.006-4.337,1.167-7.462,0.889
			c-6.792-0.604-11.471-2.661-16.508-4.44c-4.828-1.704-5.57-3.656-12.238-3.82c-5.363-0.131-14.332-0.789-19.584-0.061
			c-6.09,0.845-8.746,4.112-9.493,6.887c-3,0.014-5.36,0.871-5.471,2.441c-3.369,0.331-6.656-0.081-10.019,0.364
			c-1.853,0.246-2.468,0.757-4.7,0.939c-2.156,0.175-4.563-0.237-6.716-0.055c-6.975,0.589-14.278,1.906-21.021,3.254
			c-3.176,0.634-6.413,1.304-9.183,2.345c-1.342,0.502-2.58,1.328-3.901,1.781c-0.947,0.325-3.694,0.776-4.438,1.099
			c-0.434,0.19-2.829,2.027-3.044,2.199c-1.894,1.526-2.415,1.551-2.347,3.454c0.092,2.473,1.888,1.806,3.834,3.798
			c-3.257,1.389-10.257,2.555-14.204,3.518c-5.088,1.243-10.463,2.201-16,2.899c-4.679,0.59-9.085,0.838-12.361,2.492
			c-0.781,0.393-2.369,0.822-2.689,1.367c0.091,0.781,0.174,1.561,0.249,2.341c-0.152,0.649-0.792,1.125-1.913,1.429
			c-0.898,2.095-1.109,3.563,1.7,5.29c1.99,1.226,5.802,2.117,7.602,3.448c3.171,2.351,0.637,2.777-0.692,5.032
			c-1.038,1.762-0.101,3.778-1.557,5.653c-1.686,2.175-5.026,3.686-7.115,5.789c-2.04,2.056-3.708,4.327-5.875,6.287
			c-1.771,1.6-4.459,3.34-5.546,5.112c-2.779,4.537-4.811,7.31,5.232,9.959c7.654,2.022,10.431,2.928,10.333,7.627
			c-0.063,3.019-0.047,6.041-0.008,9.06c0.052,3.998-2.39,7.515-2.279,11.421c0.066,2.439-0.01,4.883-0.01,7.32
			c0,2.338-1.351,5.861-0.14,8.086c0.732,1.346,4.127,3.088,6.885,3.426c1.718,0.213,5.041,0.047,6.83-0.062
			c2.539-0.158,3.23-0.588,5.278-0.914c3.738-0.592,5.095-0.791,8.337-1.715l0,0c2.347-0.67,5.142-1.346,7.511-0.332
			c1.673,0.717,1.835,2.139,2.25,3.18c1.058,2.656-1.142,5.059-4.115,7.169c-1.73,1.229-3.668,2.379-5.451,3.588
			c-3.499,2.378-7.386,4.79-2.407,7.573c2.439,1.365,4.083,0.84,7.21,1.33c3.833,0.604,10.896,1.396,14.237,2.359
			c5.651,1.633,9.028,6.803,13.866,9.723c5.804,3.5,13.425,8.625,24.096,6.561c7.216-1.395,11.369-6.088,16.647-8.689
			c3.25-1.602,8.099-3.01,12.024-3.77c10.825-2.098,16.93-0.838,26.965,1.812c5.889,1.553,12.243,2.088,17.886,4.059
			c2.791,0.975,3.683,1.744,7.261,2.145c4.016,0.447,9.834,0.033,14.027-0.066c5.894-0.139,12.124-2.369,16.112-4.678
			c4.601-2.664,2.915-4.125,4.357-7.125c2.647-5.508,12.255-4.797,21.421-4.623c5.024,0.096,6.688,1.258,11.276,1.768
			c2.937,0.326,6.703,0.156,9.733,0.387c8.249,0.627,16.309,1.719,24.592,2.297c6.891,0.479,15.769,1.076,20.922-0.898
			c4.024-1.543,6.758-4.754,9.319-6.967c2.153-1.863,4.338-3.481,5.366-5.644c1.018-2.135,1.308-4.81,5.906-5.948
			c4.421-1.096,11.057,0.176,15.771-0.205c4.463-0.363,8.089-2.113,11.882-3.227c4.522-1.324,9.07-4.145,6.053-7.041
			c-3.808-3.654-14.116-3.863-20.371-5.285c-0.586-1.754,0.382-3.371,2.901-4.854c5.256-6.277,10.76-12.216,17.364-18.143
			c8.733-7.84,16.771-15.002,21.668-23.596c1.103-1.936,6.962-6.415,3.628-8.603c-2.295-1.506-8.569-1.06-11.291-0.222
			c-4.24-6.45-4.636-13.824-6.442-20.497c-1.229-4.534-2.18-9.476-4.75-13.873c-1.63-2.793-5.17-7.983-9.348-10.252
			c-3.288-1.789-3.271-1.035-6.411-3.709c-6.861-5.841-14.348-8.215-25.361-11.607c-8.565-2.638-17.575-5.562-27.711-6.31
			c-5.158-0.38-11.172,0.114-16.404,0.073c-0.942-0.008-3.859-0.244-4.783-0.071c-2.463,0.462-2.588,1.731-4.763,2.347
			c-1.092,0.308-3.726,0.188-4.957,0.327c-0.651,0.686-1.766,1.009-3.348,0.974c-1.687-0.004-3.373-0.034-5.057-0.086
			c-5.606,0.331-6.544,3.096-11.424,3.542"/>
	</g>
	<g>
		<path fill="#F7A196" d="M99.505,189.191c-8.102,0-14.32-3.781-19.077-6.674l-0.956-0.578c-2.006-1.213-3.751-2.764-5.438-4.264
			c-2.543-2.262-4.947-4.398-8.062-5.299c-2.321-0.67-6.737-1.283-10.285-1.775c-1.404-0.197-2.708-0.379-3.767-0.543
			c-0.972-0.152-1.789-0.201-2.578-0.246c-1.651-0.094-3.211-0.184-5.14-1.262c-2.052-1.146-3.082-2.432-3.146-3.93
			c-0.106-2.48,2.53-4.268,5.081-5.993l0.36-0.244c0.776-0.527,1.581-1.043,2.385-1.557c1.035-0.664,2.07-1.328,3.039-2.014
			c3.994-2.835,3.956-4.417,3.581-5.358c-0.085-0.211-0.161-0.439-0.24-0.67c-0.304-0.916-0.482-1.367-1.194-1.674
			c-1.88-0.803-4.336-0.217-6.49,0.398c-3.234,0.92-4.685,1.15-8.187,1.701l-0.332,0.053c-0.722,0.115-1.266,0.244-1.789,0.369
			c-0.943,0.223-1.918,0.455-3.635,0.561c-3.345,0.205-5.736,0.223-7.111,0.055c-2.913-0.357-6.932-2.174-8.039-4.211
			c-1.061-1.951-0.671-4.342-0.327-6.449c0.145-0.885,0.281-1.719,0.281-2.367c0-0.854,0.01-1.709,0.019-2.564
			c0.017-1.568,0.035-3.143-0.008-4.715c-0.062-2.219,0.578-4.248,1.199-6.209c0.567-1.797,1.104-3.492,1.08-5.234
			c-0.032-2.484-0.061-5.766,0.008-9.11c0.068-3.257-0.963-3.943-9.197-6.119c-5.017-1.323-7.513-2.776-8.347-4.858
			c-0.919-2.294,0.488-4.584,1.978-7.008l0.226-0.368c0.888-1.448,2.495-2.732,4.05-3.974c0.628-0.502,1.244-0.994,1.774-1.472
			c1.188-1.075,2.217-2.248,3.306-3.488c0.795-0.905,1.617-1.842,2.509-2.741c1.03-1.038,2.285-1.909,3.499-2.751
			c1.39-0.965,2.703-1.877,3.492-2.896c0.515-0.663,0.571-1.393,0.641-2.316c0.073-0.971,0.156-2.072,0.807-3.176
			c0.464-0.788,1.021-1.369,1.469-1.835c0.145-0.152,0.326-0.34,0.447-0.485c-0.123-0.14-0.362-0.373-0.816-0.71
			c-0.802-0.592-2.277-1.151-3.705-1.692c-1.352-0.513-2.75-1.042-3.789-1.683c-3.746-2.303-3.32-4.818-2.303-7.192l0.291-0.679
			l0.713-0.194c0.402-0.108,0.626-0.219,0.744-0.292c-0.061-0.608-0.126-1.216-0.199-1.825l-0.06-0.51l0.261-0.444
			c0.489-0.828,1.484-1.218,2.54-1.631c0.29-0.113,0.569-0.219,0.779-0.324c2.967-1.499,6.646-1.921,10.542-2.369
			c0.76-0.087,1.534-0.176,2.314-0.275c5.614-0.708,10.939-1.672,15.83-2.867c1.211-0.296,2.707-0.611,4.295-0.945
			c2.275-0.479,4.746-0.998,6.786-1.549c-0.892-0.527-1.805-1.369-1.875-3.282c-0.082-2.279,0.674-2.969,2.131-4.086
			c0.228-0.176,0.488-0.375,0.783-0.613c0.03-0.024,2.675-2.098,3.391-2.41c0.504-0.219,1.332-0.406,2.633-0.686
			c0.735-0.158,1.568-0.337,1.92-0.458c0.593-0.204,1.199-0.512,1.842-0.837c0.64-0.325,1.301-0.66,2.02-0.929
			c2.797-1.05,5.92-1.714,9.42-2.412c6.374-1.275,13.875-2.661,21.191-3.279c1.185-0.1,2.403-0.037,3.583,0.023
			c1.114,0.058,2.167,0.113,3.138,0.032c1.107-0.09,1.729-0.262,2.45-0.462c0.588-0.163,1.255-0.348,2.172-0.469
			c1.906-0.253,3.77-0.242,5.569-0.237c1.208,0.007,2.367,0.01,3.525-0.058c0.796-1.411,2.732-2.295,5.504-2.486
			c0.922-2.168,3.497-5.957,10.377-6.911c4.154-0.575,10.487-0.314,15.575-0.106c1.553,0.064,3.003,0.124,4.256,0.154
			c4.838,0.119,6.92,1.183,9.124,2.309c1.036,0.529,2.104,1.075,3.585,1.598c0.788,0.278,1.565,0.562,2.345,0.847
			c4.244,1.553,8.253,3.019,13.79,3.511c3.093,0.277,5.019,0.061,6.659-0.739c0.359-0.176,0.359-0.176,0.463-0.534
			c0.153-0.533,0.408-1.424,1.55-2.126c0.956-0.727,2.35-1.243,4.042-1.466c0.534-0.286,1.032-0.567,1.511-0.837
			c3.365-1.896,6.027-3.394,13.025-2.62c1.271,0.141,2.383,0.4,3.459,0.651c1.228,0.286,2.387,0.556,3.729,0.641
			c1.333-0.04,2.801-0.081,4.271-0.13l0.176-0.006l0.172,0.035c1.214,0.241,1.967,0.817,2.568,1.281
			c0.275,0.211,0.514,0.392,0.762,0.518c1.179,0.596,2.281,1.36,3.448,2.168c2.607,1.806,5.304,3.673,9.035,3.684l-0.053-0.58
			c2.017-0.184,3.23-0.806,4.635-1.525c1.671-0.856,3.563-1.826,6.838-2.019c1.806,0.05,3.479,0.079,5.151,0.083
			c1.479,0.032,2.046-0.298,2.235-0.499l0.385-0.403l0.552-0.062c0.509-0.058,1.244-0.077,2.021-0.094
			c0.932-0.021,2.209-0.048,2.691-0.185c0.73-0.206,1.129-0.504,1.634-0.88c0.708-0.528,1.588-1.184,3.262-1.499
			c0.766-0.146,2.093-0.092,3.88-0.004c0.5,0.025,0.933,0.047,1.197,0.049c1.96,0.018,3.96-0.043,6.095-0.105
			c3.499-0.103,7.116-0.207,10.41,0.037c9.74,0.718,18.313,3.366,26.607,5.927l1.439,0.445c10.844,3.34,18.677,5.753,25.903,11.904
			c1.847,1.572,2.423,1.814,3.472,2.254c0.644,0.27,1.443,0.605,2.678,1.277c4.785,2.599,8.545,8.436,9.938,10.825
			c2.22,3.798,3.263,7.872,4.27,11.81c0.211,0.82,0.418,1.633,0.634,2.434c0.517,1.902,0.923,3.88,1.316,5.792
			c0.93,4.512,1.889,9.169,4.359,13.35c3.235-0.694,8.852-0.988,11.422,0.7c1.218,0.798,1.583,1.812,1.676,2.523
			c0.297,2.292-1.778,4.604-3.447,6.46c-0.572,0.637-1.164,1.296-1.366,1.652c-4.961,8.707-13.074,15.988-21.664,23.696l-0.312,0.28
			c-5.906,5.301-11.375,11.015-17.213,17.986l-0.169,0.203l-0.227,0.133c-1.616,0.953-2.141,1.725-2.274,2.271
			c1.522,0.297,3.246,0.545,5.049,0.805c5.863,0.844,11.925,1.715,14.978,4.646c1.533,1.473,1.575,2.926,1.34,3.883
			c-0.803,3.283-5.877,5.098-8.021,5.727c-1.087,0.318-2.16,0.691-3.245,1.066c-2.75,0.957-5.595,1.943-8.942,2.217
			c-2.026,0.16-4.38,0.037-6.654-0.084c-3.186-0.17-6.48-0.348-8.874,0.248c-3.103,0.77-3.677,2.187-4.403,3.978
			c-0.158,0.391-0.313,0.775-0.491,1.145c-1.017,2.134-2.85,3.687-4.789,5.327l-0.956,0.814c-0.562,0.486-1.131,1.02-1.722,1.574
			c-2.181,2.045-4.652,4.359-8.05,5.664c-5.519,2.117-14.8,1.469-21.576,0.996c-4.38-0.307-8.758-0.76-12.99-1.199
			c-3.795-0.395-7.719-0.803-11.611-1.098c-1.312-0.102-2.824-0.125-4.284-0.146c-1.873-0.029-3.809-0.059-5.502-0.246
			c-2.012-0.223-3.464-0.562-4.867-0.887c-1.883-0.439-3.51-0.818-6.269-0.871l-2.218-0.049c-7.767-0.182-15.79-0.373-17.798,3.805
			c-0.369,0.771-0.484,1.416-0.604,2.102c-0.363,2.059-0.89,3.672-4.364,5.684c-3.906,2.262-10.383,4.732-16.842,4.885
			c-1.003,0.023-2.099,0.064-3.241,0.109c-3.671,0.141-7.828,0.299-10.991-0.053c-2.789-0.311-4.124-0.855-5.671-1.48
			c-0.562-0.229-1.17-0.477-1.924-0.738c-3.202-1.121-6.765-1.783-10.21-2.426c-2.495-0.463-5.075-0.943-7.561-1.6
			c-9.602-2.535-15.557-3.867-26.287-1.791c-4.26,0.828-8.829,2.256-11.638,3.643c-1.736,0.854-3.358,1.959-5.076,3.127
			c-3.409,2.32-6.934,4.721-11.957,5.689C102.855,189.037,101.141,189.191,99.505,189.191z M51.934,143.662
			c1.126,0,2.252,0.178,3.337,0.645c2.004,0.857,2.537,2.453,2.89,3.512c0.058,0.176,0.113,0.346,0.178,0.506
			c1.765,4.426-3.063,7.853-4.649,8.979c-1.007,0.715-2.083,1.406-3.16,2.094c-0.781,0.499-1.564,1.001-2.317,1.511l-0.363,0.246
			c-1.319,0.895-3.775,2.557-3.742,3.336c0.007,0.18,0.349,0.705,1.584,1.395c1.316,0.736,2.313,0.793,3.824,0.879
			c0.823,0.047,1.756,0.1,2.878,0.275c1.045,0.164,2.331,0.344,3.713,0.535c3.835,0.533,8.182,1.137,10.712,1.867
			c3.782,1.092,6.559,3.564,9.246,5.953c1.656,1.473,3.22,2.863,4.986,3.928l0.964,0.586c5.588,3.396,12.543,7.625,22.053,5.783
			c4.405-0.852,7.666-3.07,10.819-5.215c1.729-1.178,3.518-2.395,5.444-3.346c3.68-1.814,8.822-3.203,12.408-3.896
			c11.365-2.203,17.908-0.738,27.646,1.832c2.377,0.627,4.901,1.098,7.341,1.553c3.558,0.662,7.237,1.348,10.659,2.543
			c0.806,0.281,1.461,0.547,2.064,0.793c1.447,0.586,2.493,1.01,4.861,1.273c2.935,0.328,6.973,0.176,10.536,0.037
			c1.159-0.043,2.27-0.086,3.287-0.111c5.889-0.139,11.967-2.498,15.383-4.473c2.513-1.457,2.646-2.207,2.887-3.572
			c0.136-0.777,0.307-1.744,0.858-2.893c2.861-5.955,11.896-5.738,20.624-5.535l2.203,0.047c3.079,0.059,5.024,0.512,6.904,0.949
			c1.317,0.307,2.68,0.625,4.512,0.826c1.548,0.172,3.409,0.201,5.21,0.229c1.507,0.023,3.065,0.047,4.47,0.154
			c3.934,0.299,7.879,0.709,11.696,1.105c4.207,0.438,8.558,0.889,12.886,1.189c6.492,0.453,15.382,1.074,20.271-0.799
			c2.838-1.088,4.98-3.098,7.053-5.041c0.622-0.584,1.222-1.145,1.812-1.654l0.981-0.836c1.682-1.425,3.271-2.769,4.004-4.31
			c0.152-0.316,0.283-0.645,0.419-0.979c0.796-1.964,1.886-4.651,6.501-5.798c2.838-0.701,6.361-0.514,9.771-0.332
			c2.274,0.121,4.421,0.234,6.245,0.088c2.958-0.24,5.616-1.162,8.187-2.053c1.132-0.395,2.253-0.781,3.389-1.115
			c3.532-1.037,5.684-2.584,5.912-3.52c0.023-0.098,0.095-0.393-0.487-0.953c-2.346-2.252-8.166-3.09-13.299-3.83
			c-2.3-0.33-4.474-0.641-6.354-1.072l-0.838-0.188l-0.272-0.814c-0.568-1.701-0.436-4.195,3.343-6.516
			c5.872-6.996,11.391-12.753,17.351-18.102l0.312-0.28c8.4-7.538,16.335-14.659,21.05-22.936c0.365-0.641,1.006-1.354,1.749-2.181
			c0.98-1.092,2.806-3.124,2.688-4.026c-0.006-0.041-0.02-0.167-0.321-0.363c-1.605-1.055-7.174-0.911-10.003-0.039l-1.096,0.338
			l-0.63-0.958c-3.221-4.898-4.312-10.2-5.368-15.327c-0.403-1.953-0.781-3.797-1.272-5.61c-0.222-0.814-0.432-1.64-0.646-2.474
			c-0.956-3.735-1.943-7.597-3.948-11.027c-0.986-1.691-4.536-7.387-8.76-9.681c-1.098-0.599-1.789-0.888-2.399-1.145
			c-1.318-0.552-2.165-0.952-4.272-2.745c-6.745-5.742-14.327-8.078-24.819-11.31l-1.444-0.445
			c-8.129-2.512-16.535-5.108-25.929-5.8c-3.141-0.231-6.68-0.128-10.098-0.029c-2.068,0.06-4.208,0.119-6.207,0.106
			c-0.295-0.002-0.772-0.025-1.324-0.053c-0.874-0.044-2.696-0.134-3.166-0.045c-0.979,0.184-1.407,0.503-2,0.945
			c-0.604,0.451-1.354,1.011-2.628,1.371c-0.858,0.243-2.178,0.271-3.455,0.3c-0.467,0.01-0.916,0.018-1.295,0.039
			c-0.951,0.715-2.28,1.063-4.005,1.019c-1.672-0.004-3.372-0.033-5.071-0.087c-2.493,0.154-3.946,0.898-5.485,1.686
			c-1.547,0.793-3.145,1.612-5.751,1.85l-0.142-1.548l0.009,2.141c-0.02,0-0.04,0-0.062,0c-4.7,0-7.942-2.246-10.805-4.229
			c-1.077-0.747-2.094-1.451-3.085-1.951c-0.504-0.254-0.896-0.555-1.243-0.821c-0.43-0.329-0.726-0.557-1.155-0.673
			c-1.411,0.046-2.82,0.085-4.232,0.122c-1.73-0.104-3.07-0.416-4.364-0.718c-1.034-0.241-2.011-0.468-3.101-0.588
			c-6.016-0.668-8.08,0.491-11.19,2.244c-0.577,0.325-1.178,0.663-1.834,1.008l-0.257,0.135l-0.289,0.032
			c-1.275,0.139-2.269,0.472-2.954,0.987c-0.216,0.14-0.243,0.175-0.243,0.175c-0.021,0.031-0.062,0.176-0.09,0.273
			c-0.23,0.806-0.6,1.725-2.061,2.436c-2.181,1.064-4.576,1.367-8.268,1.038c-5.937-0.527-10.325-2.133-14.568-3.686
			c-0.768-0.281-1.536-0.561-2.312-0.836c-1.672-0.59-2.887-1.21-3.958-1.758c-2.127-1.088-3.666-1.874-7.809-1.975
			c-1.267-0.031-2.735-0.091-4.306-0.155c-4.967-0.204-11.147-0.46-15.031,0.08c-6.256,0.868-7.838,4.326-8.229,5.772l-0.303,1.124
			l-1.165,0.005c-2.871,0.013-3.941,0.844-3.954,1.021l-0.091,1.286l-1.284,0.126c-1.643,0.161-3.254,0.153-4.813,0.148
			c-1.78-0.003-3.458-0.014-5.156,0.21c-0.707,0.094-1.194,0.229-1.758,0.386c-0.76,0.21-1.622,0.449-3.018,0.562
			c-1.171,0.098-2.377,0.035-3.542-0.025c-1.125-0.058-2.188-0.112-3.17-0.029C98.167,25.375,90.77,26.742,84.48,28
			c-3.366,0.672-6.363,1.307-8.946,2.276c-0.56,0.21-1.119,0.494-1.71,0.794c-0.707,0.359-1.439,0.73-2.232,1.002
			c-0.524,0.179-1.371,0.362-2.269,0.555c-0.711,0.153-1.787,0.385-2.056,0.5c-0.341,0.191-2.316,1.686-2.7,1.992
			c-0.311,0.251-0.59,0.465-0.835,0.653c-0.967,0.743-0.967,0.743-0.938,1.552c0.021,0.598,0.021,0.598,0.864,1.02
			c0.672,0.338,1.593,0.8,2.536,1.767l1.559,1.596L65.7,42.583c-2.405,1.026-6.569,1.901-10.241,2.673
			c-1.552,0.327-3.015,0.634-4.199,0.923c-5.002,1.222-10.443,2.208-16.172,2.93c-0.792,0.101-1.576,0.19-2.349,0.279
			c-3.617,0.415-7.032,0.808-9.515,2.062c-0.282,0.142-0.653,0.29-1.042,0.442c-0.202,0.079-0.479,0.187-0.717,0.291
			c0.053,0.489,0.103,0.978,0.15,1.467l0.024,0.25l-0.057,0.245c-0.244,1.041-1.002,1.815-2.257,2.309
			c-0.434,1.12-0.364,1.701,1.358,2.759c0.792,0.489,2.052,0.965,3.271,1.428c1.622,0.613,3.297,1.249,4.439,2.094
			c0.939,0.696,2.03,1.66,2.139,2.954c0.106,1.256-0.72,2.117-1.382,2.809c-0.374,0.389-0.758,0.79-1.042,1.272
			c-0.29,0.492-0.335,1.095-0.393,1.855c-0.087,1.146-0.195,2.57-1.272,3.959c-1.077,1.388-2.646,2.479-4.164,3.532
			c-1.152,0.8-2.24,1.556-3.074,2.396c-0.825,0.832-1.581,1.692-2.38,2.604c-1.098,1.251-2.234,2.545-3.554,3.738
			c-0.573,0.519-1.238,1.051-1.916,1.593c-1.349,1.077-2.744,2.192-3.353,3.185l-0.227,0.369c-1.123,1.828-2.093,3.405-1.746,4.273
			c0.282,0.705,1.602,1.804,6.291,3.042c7.233,1.911,11.598,3.063,11.472,9.136c-0.069,3.299-0.041,6.546-0.008,9.008
			c0.029,2.234-0.607,4.246-1.223,6.193c-0.568,1.799-1.105,3.5-1.058,5.205c0.044,1.611,0.026,3.225,0.01,4.834
			c-0.01,0.844-0.019,1.688-0.019,2.529c0,0.896-0.156,1.85-0.32,2.859c-0.266,1.625-0.567,3.467-0.005,4.498
			c0.376,0.691,3.117,2.318,5.729,2.639c1.155,0.141,3.48,0.117,6.55-0.072c1.456-0.09,2.226-0.273,3.119-0.484
			c0.588-0.139,1.2-0.283,2.014-0.412l0.334-0.053c3.47-0.547,4.77-0.754,7.825-1.623C48.369,144.109,50.153,143.662,51.934,143.662
			z"/>
	</g>
	<g>
		<rect x="68.997" y="56.625" fill="#FFFFFF" width="243.523" height="80.512"/>
	</g>
	<g>
		<text transform="matrix(1 0 0 1 68.999 82.1528)"><tspan x="0" y="0" font-family="'LydianBT-Bold'" font-size="33.6002">Catskill,</tspan><tspan x="108.38" y="0" font-family="'LydianBT-Bold'" font-size="33.6002"> </tspan><tspan x="117.217" y="0" font-family="'LydianBT-Bold'" font-size="33.6002">New</tspan><tspan x="177.198" y="0" font-family="'LydianBT-Bold'" font-size="33.6002"> </tspan><tspan x="186.035" y="0" font-family="'LydianBT-Bold'" font-size="33.6002" letter-spacing="-2">Y</tspan><tspan x="200.58" y="0" font-family="'LydianBT-Bold'" font-size="33.6002">ork</tspan></text>
	</g>
	<g>
		<text transform="matrix(1 0 0 1 102.4854 137.1348)" font-family="'LydianBT-Bold'" font-size="33.6002">May 2, 2020</text>
	</g>
</g>
</svg>
