<?xml version="1.0" encoding="utf-8"?>
<!-- Generator: Adobe Illustrator 16.0.0, SVG Export Plug-In . SVG Version: 6.00 Build 0)  -->
<!DOCTYPE svg PUBLIC "-//W3C//DTD SVG 1.1//EN" "http://www.w3.org/Graphics/SVG/1.1/DTD/svg11.dtd">
<svg version="1.1" id="Layer_1" xmlns="http://www.w3.org/2000/svg" xmlns:xlink="http://www.w3.org/1999/xlink" x="0px" y="0px"
	 width="1080px" height="265px" viewBox="0 0 1080 265" enable-background="new 0 0 1080 265" xml:space="preserve">
<g>
	<path fill="#F7A196" d="M63.112,184.812l-1.778-3.62c6.226-3.056,12.266-6.398,18.106-9.633c6.167-3.412,12.542-6.941,19.196-10.17
		c9.567-4.288,18.944-8.784,27.927-13.387c4.886-2.307,9.98-4.322,14.907-6.27c4.671-1.846,9.5-3.754,14.026-5.863
		c7.471-3.486,15.481-6.836,23.428-7.742c1.659-0.191,3.061-0.181,4.3-0.171c2.1,0.011,3.615,0.025,5.648-0.833
		c2.289-0.968,4.437-2.473,6.513-3.93c1.418-0.994,2.886-2.022,4.413-2.895c4.534-2.588,7.035-3.305,12.249-4.148
		c3.75-0.612,7.814-0.558,11.752-0.495c5.526,0.076,10.746,0.152,14.881-1.481c22.355-8.823,44.702-15.191,66.418-18.924
		c22.634-3.894,46.627-4.881,69.83-5.834l3.809-0.158c13.717-0.568,27.492-0.327,40.813-0.096l8.206,0.135
		c6.342,0.095,10.333,1.047,14.953,2.15c1.809,0.431,3.723,0.887,5.933,1.323c8.26,1.636,17.334,1.731,26.11,1.824
		c2.252,0.023,4.489,0.046,6.694,0.095c19.391,0.418,38.784,0.806,58.178,1.163c7.543,0.155,15.329,0.169,23.571,0.181
		c29.334,0.047,62.578,0.103,89.35,7.368c1.916,0.52,10.992,3.443,19.143,6.503c10.967,4.121,15.123,6.469,16.543,8.216
		c13.264,0.598,26.52,1.248,39.77,1.896c28.975,1.418,58.934,2.884,88.465,3.781c11.336,0.344,23.123,0.509,34.52,0.67
		c36.352,0.513,73.941,1.039,108.963,7.22c5.936,1.05,13.311,2.494,17.707,4.357c1.684,0.714,3.301,1.603,4.867,2.465
		c1.352,0.744,2.75,1.513,4.17,2.156c1.477,0.667,2.936,1.336,4.385,2.003c8.102,3.715,15.752,7.227,24.904,9.707
		c2.311,0.625,4.164,0.804,6.307,1.011c0.934,0.091,1.91,0.184,2.986,0.319c2.383,0.301,4.395,0.756,6.34,1.195
		c2.652,0.6,5.16,1.168,8.396,1.289c2.174,0.081,4.371,0.172,6.582,0.264c9.371,0.387,19.061,0.79,28.271,0.499
		c2.402-0.075,4.592-0.42,6.908-0.785c2.191-0.347,4.459-0.706,7.02-0.845c8.557-0.476,17.564-0.109,26.277,0.243
		c3.842,0.156,7.65,0.312,11.379,0.392c4.078,0.092,8.162,0.157,12.248,0.225c7.504,0.126,15.262,0.255,22.887,0.522
		c6.121,0.214,11.99,1.398,17.668,2.545c6.031,1.215,11.727,2.364,17.674,2.439l-0.051,4.033c-6.326-0.081-12.475-1.319-18.42-2.521
		c-5.518-1.112-11.223-2.262-17.012-2.469c-7.588-0.265-15.33-0.393-22.814-0.517c-4.092-0.066-8.182-0.137-12.266-0.224
		c-3.756-0.084-7.588-0.239-11.455-0.395c-8.611-0.351-17.523-0.707-25.895-0.25c-2.354,0.13-4.518,0.473-6.611,0.804
		c-2.338,0.369-4.756,0.75-7.412,0.832c-9.354,0.298-19.119-0.111-28.562-0.501c-2.207-0.092-4.398-0.183-6.566-0.263
		c-3.611-0.134-6.422-0.771-9.137-1.385c-1.852-0.42-3.766-0.853-5.955-1.129c-1.031-0.129-1.969-0.22-2.867-0.307
		c-2.229-0.215-4.336-0.418-6.977-1.132c-9.473-2.564-17.271-6.146-25.531-9.935c-1.441-0.661-2.893-1.328-4.365-1.993
		c-1.562-0.707-3.031-1.514-4.451-2.296c-1.543-0.85-3.002-1.652-4.494-2.285c-4.543-1.923-13.475-3.506-16.836-4.098
		c-34.701-6.126-72.127-6.651-108.316-7.16c-11.416-0.16-23.219-0.326-34.588-0.67c-29.568-0.898-59.547-2.367-88.539-3.785
		c-13.682-0.669-27.365-1.342-41.061-1.956l-2.406-0.109l0.383-1.701c-3.432-3.133-27.598-11.457-33.23-12.986
		c-26.256-7.126-59.217-7.179-88.299-7.226c-8.262-0.013-16.067-0.025-23.644-0.182c-19.394-0.356-38.792-0.745-58.187-1.165
		c-2.191-0.049-4.413-0.07-6.649-0.094c-8.959-0.094-18.224-0.191-26.851-1.901c-2.266-0.446-4.23-0.916-6.085-1.356
		c-4.389-1.047-8.18-1.953-14.078-2.039l-8.216-0.135c-13.874-0.241-26.979-0.47-40.575,0.093l-3.812,0.157
		c-23.073,0.948-46.935,1.929-69.312,5.778c-21.444,3.69-43.522,9.979-65.621,18.703c-4.877,1.925-10.741,1.841-16.419,1.762
		c-3.764-0.063-7.648-0.11-11.05,0.443c-4.827,0.78-6.841,1.355-10.894,3.668c-1.363,0.779-2.692,1.71-4.097,2.695
		c-2.25,1.578-4.575,3.209-7.259,4.342c-2.8,1.182-4.959,1.17-7.247,1.151c-1.18-0.01-2.398-0.016-3.814,0.144
		c-7.374,0.84-15.018,4.049-22.182,7.391c-4.635,2.161-9.521,4.092-14.247,5.96c-4.867,1.923-9.9,3.913-14.61,6.136
		c-8.986,4.606-18.428,9.132-28.003,13.422c-6.5,3.154-12.829,6.659-18.948,10.046C75.51,178.348,69.426,181.712,63.112,184.812z"/>
</g>
<g>
	<rect x="-85.73" y="-10.712" fill="none" width="1161.637" height="1161.638"/>
</g>
<g>
	<path fill="#41AD49" d="M150.786,139.148l-22.548,10.629l-17.182-36.448l-39.513,18.626l21.465,45.532l-4.75,13.479l-15.212,7.172
		l-1.446-3.066l13.898-6.553l3.878-10.788L52.743,100.02l-13.901,6.552l-3.875,10.791l4.542,9.63l12.077,4.341l-1.158,3.222
		l-13.365-4.804l-5.78-12.26l4.803-13.365l18.276-8.619L70.1,128.893l39.511-18.629L93.875,76.881l3.064-1.443l32.92,69.831
		l18.276-8.618l4.341-12.078l3.22,1.158L150.786,139.148z"/>
</g>
<g>
	<path fill="#41AD49" d="M208.614,126.57l-19.99,2.96l-0.993-6.702l-5.591,7.679l-14.722,2.178l-11.528-8.445l-3.954-26.691
		l8.465-11.407l24.777-3.67l6.399,43.211l15.322-2.27l7.647-10.308l2.748,2.041L208.614,126.57z M182.223,86.318l-19.87,2.944
		l-6.932,9.345l3.492,23.582l9.345,6.931l11.729-1.735l6.935-9.343L182.223,86.318z"/>
</g>
<g>
	<path fill="#41AD49" d="M259.05,108.423l-15.791,6.134l-12.84-33.048l-10.613-4.702l-17.292,6.718l15.819,40.717l-3.159,1.227
		l-17.046-43.874l21.881-8.503l13.043,5.838l12.138,31.244l11.279-4.382l5.172-11.746l3.131,1.38L259.05,108.423z"/>
</g>
<g>
	<path fill="#41AD49" d="M312.118,95.636l-16.58,3.48l-7.289-34.693l-9.707-6.371l-18.155,3.814l8.981,42.748l-3.314,0.698
		l-9.678-46.065l22.972-4.827l11.919,7.883l6.891,32.802L310,92.619l7.015-10.749l2.865,1.871L312.118,95.636z"/>
</g>
<g>
	<path fill="#41AD49" d="M371.412,91.337l-20.173,1.187l-0.397-6.764l-6.246,7.153l-14.857,0.875l-10.736-9.432l-1.583-26.936
		l9.437-10.616l25.004-1.469l2.561,43.608l15.462-0.911l8.528-9.591l2.559,2.276L371.412,91.337z M348.678,48.915l-20.053,1.177
		l-7.73,8.697l1.396,23.797l8.695,7.731l11.84-0.694l7.73-8.696L348.678,48.915z"/>
</g>
<g>
	<path fill="#41AD49" d="M434.573,91.404l-22.02-0.341l0.546-35.451l-7.979-8.352l-13.913-0.213l-8.233,8.103l-0.546,35.451
		l-3.388-0.053l1.24-80.582l3.389,0.053l-0.621,40.29l6.759-6.673l16.817,0.26l9.886,10.316l-0.516,33.514l17.18,0.266l9.214-8.936
		l2.383,2.459L434.573,91.404z"/>
</g>
<g>
</g>
<g>
	<path fill="#41AD49" d="M523.788,97.589l-20.204-0.421l0.141-6.777l-6.794,6.639l-14.881-0.312l-9.953-10.25l0.562-26.978
		l10.25-9.834l25.043,0.524l-0.909,43.672l15.484,0.322l9.262-8.885l2.37,2.473L523.788,97.589z M504.492,53.495l-20.082-0.42
		l-8.398,8.055l-0.496,23.834l8.056,8.398l11.857,0.246l8.395-8.053L504.492,53.495z"/>
</g>
<g>
	<path fill="#41AD49" d="M578.477,98.089l-16.939-0.04l0.082-35.454l-8.172-8.246l-18.552-0.044l-0.103,43.683l-3.387-0.008
		l0.11-47.07l23.474,0.054l10.02,10.19l-0.078,33.516l12.102,0.027l9.096-9.054l2.414,2.426L578.477,98.089z"/>
</g>
<g>
	<path fill="#41AD49" d="M642.361,101.71l-11.455-0.948l-7.637-9.009l-8.887,7.645l-18.209-1.502l-9.303-10.847l2.211-26.77
		l10.967-9.295l18.088,1.495l6.199,7.311l3.316-40.157l3.375,0.278l-5.697,68.98l7.301,8.616l8.682,0.718l9.795-8.3l2.209,2.614
		L642.361,101.71z M623.936,64.612l-7.523-8.879l-15.195-1.253l-8.879,7.522l-1.961,23.758l7.521,8.877l15.197,1.253l8.879-7.521
		L623.936,64.612z"/>
</g>
<g>
	<rect x="-85.73" y="-10.712" fill="none" width="1161.637" height="1161.638"/>
</g>
<g>
</g>
<g>
	<path fill="#41AD49" d="M757.111,123.46l-60.912-2.978l-9.662-10.53l2.955-60.429l10.523-9.54l33.115,1.617l9.662,10.53
		l-0.492,10.029l-3.385-0.164l0.42-8.582l-7.701-8.494l-30.336-1.483l-8.492,7.702l-2.812,57.529l7.699,8.493l30.215,1.476
		l8.615-7.693l1.242-25.38l-13.416-0.658l0.164-3.384l26.834,1.312l-0.166,3.386l-10.033-0.49l-1.312,26.83l-7.092,6.315
		l23.084,1.129l9.51-8.624l2.295,2.539L757.111,123.46z"/>
</g>
<g>
	<path fill="#41AD49" d="M787.939,124.81l-23.453-1.02l2.041-47.026l3.385,0.147l-1.895,43.641l18.736,0.813l9.463-8.671l2.312,2.52
		L787.939,124.81z M766.535,48.663l0.236-5.438l5.441,0.236l-0.236,5.439L766.535,48.663z"/>
</g>
<g>
	<path fill="#41AD49" d="M830.143,126.203l-24.432-0.691l-9.877-10.325l1.711-60.479l10.445-9.75l6.291,0.176l9.754,10.324
		l-0.691,24.434l-23.805,24.141l-0.275,9.797l7.873,8.333l21.652,0.612l9.449-8.809l2.227,2.483L830.143,126.203z M820.609,56.813
		l-7.877-8.335l-3.387-0.094l-8.453,7.87l-1.217,42.942l20.309-20.368L820.609,56.813z"/>
</g>
<g>
	<path fill="#039347" d="M72.465,199.747l-2.475-5.252l14.541-6.856l3.536-9.848l-35.904-76.162l-12.352,5.821l-3.538,9.849
		l4.113,8.725l12.747,4.577l-1.975,5.499l-14.977-5.38l-6.209-13.163l5.143-14.311l19.828-9.348l15.735,33.383l37.324-17.594
		L92.264,76.302l5.253-2.475l32.92,69.828l16.731-7.886l4.577-12.741l5.506,1.97l-5.501,15.032l-24.091,11.356l-17.182-36.447
		l-37.323,17.596l21.161,44.885l-5.084,14.422L72.465,199.747z M73.21,195.653l0.413,0.871l13.662-6.438l4.417-12.532
		l-21.768-46.178l41.7-19.658l17.183,36.446l21.003-9.899l4.321-11.808l-0.936-0.336l-4.099,11.41l-19.827,9.348L96.359,77.05
		l-0.874,0.411l15.736,33.383l-41.702,19.66L53.784,97.12l-16.731,7.887L32.59,117.43l5.352,11.352l11.757,4.222l0.338-0.941
		l-11.411-4.101l-4.967-10.535l4.214-11.738l15.448-7.283l37.364,79.26l-4.216,11.733L73.21,195.653z"/>
</g>
<g>
	<path fill="#039347" d="M167.002,133.956l-12.335-9.039l-4.101-27.689l9.06-12.208l26.47-3.922l6.402,43.209l13.627-2.016
		l8.07-10.879l4.699,3.488l-9.614,12.794l-21.678,3.211l-0.735-4.973l-4.147,5.698L167.002,133.956z M156.912,123.563l10.718,7.851
		l13.73-2.03l7.033-9.664l1.25,8.435l18.301-2.712l7.554-10.052l-0.8-0.593l-7.225,9.738l-17.013,2.521l-6.402-43.211l-23.084,3.42
		l-7.867,10.601L156.912,123.563z M167.938,130.392l-10.149-7.532l-3.64-24.573l7.53-10.148l21.565-3.195l4.947,33.413l-7.53,10.147
		L167.938,130.392z M160.035,121.514l8.539,6.337l10.739-1.592l6.337-8.542l-4.447-30.024l-18.177,2.69l-6.337,8.542
		L160.035,121.514z"/>
</g>
<g>
	<path fill="#039347" d="M214.485,127.034l-17.921-46.127l23.48-9.125l13.958,6.249l11.88,30.579l9.685-3.763l5.458-12.394
		l5.349,2.355l-6.416,14.566l-17.385,6.754l-13.096-33.713l-9.698-4.297l-15.697,6.099l15.82,40.718L214.485,127.034z
		 M199.696,82.286l16.169,41.617l0.901-0.349l-15.818-40.718l18.891-7.338l11.531,5.107l12.58,32.388l14.197-5.516l5.035-11.433
		l-0.917-0.403l-4.888,11.098l-12.873,4.999l-12.397-31.905l-12.126-5.43L199.696,82.286z"/>
</g>
<g>
	<path fill="#039347" d="M265.119,106.746l-10.177-48.432l24.652-5.181l12.756,8.437l6.744,32.104l10.167-2.137l7.405-11.339
		l4.892,3.189l-8.7,13.329l-18.254,3.835l-7.435-35.389l-8.87-5.82l-16.479,3.461l8.983,42.751L265.119,106.746z M257.809,60.185
		l9.181,43.696l0.947-0.199l-8.982-42.751l19.831-4.166l10.546,6.919l7.143,33.999l14.904-3.13l6.829-10.461l-0.838-0.548
		l-6.629,10.155l-13.517,2.842l-7.038-33.502l-11.083-7.329L257.809,60.185z"/>
</g>
<g>
	<path fill="#039347" d="M329.313,95.024l-11.491-10.091l-1.641-27.943l10.104-11.365L353,44.056l2.561,43.608l13.754-0.807
		l8.997-10.122l4.372,3.884l-10.705,11.896l-21.877,1.285l-0.294-5.018l-4.634,5.306L329.313,95.024z M320.18,83.783l9.984,8.769
		l13.853-0.815l7.859-9.003l0.499,8.512l18.468-1.087l8.412-9.344l-0.744-0.662l-8.056,9.061l-17.171,1.008l-2.562-43.607
		l-23.296,1.369l-8.77,9.867L320.18,83.783z M330.559,91.555l-9.446-8.398l-1.456-24.795l8.398-9.446l21.759-1.279l1.982,33.72
		l-8.399,9.446L330.559,91.555z M323.471,82.015l7.947,7.065l10.837-0.634l7.065-7.949l-1.781-30.304l-18.342,1.078l-7.065,7.949
		L323.471,82.015z"/>
</g>
<g>
	<path fill="#039347" d="M435.056,92.621l-23.731-0.364l0.558-36.165l-7.288-7.627l-12.901-0.2l-7.518,7.399l-0.558,36.166
		l-5.808-0.088l1.28-83l5.806,0.088l-0.593,38.54l5.013-4.951l17.832,0.276l10.579,11.042l-0.505,32.8l15.47,0.24l9.723-9.429
		l4.067,4.193L435.056,92.621z M413.783,89.875l20.309,0.313l8.968-8.698l-0.698-0.718l-8.704,8.438l-18.893-0.29l0.528-34.227
		l-9.192-9.596l-15.805-0.244l-8.503,8.397l0.646-42.038l-0.964-0.015l-1.206,78.159l0.968,0.013l0.536-34.735l8.947-8.806
		l14.926,0.231l8.672,9.076L413.783,89.875z"/>
</g>
<g>
	<path fill="#039347" d="M524.259,98.81l-21.91-0.458l0.104-5.027l-5.039,4.925l-15.885-0.33l-10.653-10.971l0.584-27.985
		l10.975-10.527l26.752,0.555l-0.91,43.675l13.773,0.285l9.774-9.374l4.051,4.224L524.259,98.81z M504.82,95.983l18.495,0.385
		l9.129-8.648l-0.691-0.718l-8.751,8.393l-17.195-0.356l0.91-43.676l-23.331-0.484l-9.528,9.137l-0.543,25.972l9.257,9.534
		l13.875,0.288l8.547-8.351L504.82,95.983z M495.905,94.832l-12.859-0.27l-8.749-9.121l0.519-24.837l9.122-8.75l21.792,0.458
		l-0.702,33.767L495.905,94.832z M484.099,92.162l10.854,0.228l7.673-7.362l0.633-30.347l-18.371-0.384l-7.674,7.361l-0.477,22.832
		L484.099,92.162z"/>
</g>
<g>
	<path fill="#039347" d="M578.977,99.299l-18.654-0.042l0.086-36.164l-7.465-7.535l-16.838-0.038l-0.103,43.684l-5.81-0.014
		l0.116-49.494l25.189,0.06l10.725,10.901l-0.078,32.805l10.391,0.024l9.598-9.552l4.121,4.142L578.977,99.299z M562.75,96.843
		l15.23,0.035l8.852-8.81l-0.707-0.71l-8.594,8.551l-13.812-0.033l0.08-34.231l-9.316-9.471l-21.759-0.052l-0.104,44.653
		l0.968,0.001l0.103-43.683l20.263,0.046l8.877,8.961L562.75,96.843z"/>
</g>
<g>
	<path fill="#039347" d="M642.758,102.957l-12.451-1.029l-7.17-8.462l-8.35,7.179l-19.207-1.585l-9.955-11.608l2.293-27.772
		l11.73-9.942l19.09,1.576l4.633,5.465l3.176-38.454l5.785,0.479l-5.754,69.686l6.652,7.855l7.686,0.632l10.33-8.757l3.785,4.463
		L642.758,102.957z M631.504,99.6l10.461,0.863l9.645-8.074l-0.645-0.761l-9.25,7.839l-9.684-0.799l-7.949-9.381l5.639-68.272
		l-0.963-0.08l-3.459,41.864l-7.758-9.159l-17.092-1.411l-10.201,8.644l-2.129,25.769l8.648,10.084l17.211,1.423l9.428-8.108
		L631.504,99.6z M613.496,97.137l-16.193-1.34l-8.17-9.639l2.043-24.756l9.645-8.172l16.189,1.339l8.172,9.641l-2.045,24.756
		L613.496,97.137z M598.498,93.471l14.197,1.172l8.111-6.875l1.881-22.759l-6.875-8.112l-14.193-1.174l-8.113,6.876l-1.879,22.759
		L598.498,93.471z"/>
</g>
<g>
	<path fill="#039347" d="M757.553,124.694l-61.91-3.028l-10.338-11.269l3.004-61.436l11.264-10.212l34.111,1.669l10.34,11.266
		l-0.574,11.745l-5.801-0.283l0.455-9.292l-7.029-7.75l-29.336-1.433l-7.75,7.029l-2.762,56.528l7.027,7.749l29.219,1.431
		l7.867-7.029l1.156-23.665l-13.416-0.656l0.283-5.803l29.25,1.427l-0.283,5.805l-10.033-0.492l-1.277,26.13l-5.26,4.685
		l19.625,0.962l10.035-9.1l3.922,4.331L757.553,124.694z M696.754,119.298l59.918,2.929l9.254-8.393l-0.674-0.742l-8.984,8.145
		l-26.537-1.299l8.924-7.943l1.344-27.535l10.033,0.491l0.049-0.967l-24.418-1.192l-0.047,0.968l13.414,0.653l-1.322,27.097
		l-9.361,8.363l-31.213-1.528l-8.373-9.234l2.863-58.529l9.234-8.376l31.336,1.532l8.375,9.236l-0.385,7.874l0.967,0.047l0.408-8.32
		l-8.986-9.789l-32.117-1.571l-9.777,8.866l-2.908,59.427L696.754,119.298z"/>
</g>
<g>
	<path fill="#039347" d="M788.383,126.04l-25.16-1.094l2.15-49.445l5.801,0.253l-1.896,43.642l17.029,0.739l9.984-9.151l3.951,4.31
		L788.383,126.04z M765.746,122.634l21.748,0.944l9.32-8.442l-0.674-0.734l-8.938,8.195l-20.449-0.888l1.896-43.641l-0.965-0.042
		L765.746,122.634z M773.133,50.162l-7.857-0.34l0.342-7.856l7.857,0.341L773.133,50.162z M767.797,47.509l3.023,0.132l0.131-3.023
		l-3.023-0.132L767.797,47.509z"/>
</g>
<g>
	<path fill="#039347" d="M830.609,127.425l-25.428-0.718l-10.57-11.052l1.74-61.489l11.18-10.435l7.285,0.206l10.443,11.052
		l-0.719,25.41l-23.805,24.143l-0.25,8.821l7.188,7.604l20.654,0.584l9.986-9.316l3.84,4.282L830.609,127.425z M806.244,124.317
		l23.434,0.665l9.104-8.602l-0.619-0.689l-8.91,8.308l-22.648-0.641l-8.564-9.062l0.305-10.774l23.803-24.141l0.666-23.457
		l-9.068-9.594l-5.287-0.152l-9.713,9.068l-1.684,59.468L806.244,124.317z M798.383,102.206l1.314-46.492l9.189-8.554l4.381,0.122
		l8.566,9.063l-0.652,22.997L798.383,102.206z M802.09,56.793l-1.115,39.385l17.814-17.864l0.598-21.035l-7.188-7.606l-2.389-0.067
		L802.09,56.793z"/>
</g>
<g>
	<path d="M723.121,199.957l-9.396-1.657l0.051-0.296l-0.342,0.245l-6.611-1.168l-3.756-5.294l1.938-10.985l5.293-3.706l11.152,1.968
		l-2.783,15.774l3.486,0.614l4.58-3.205l2.461,3.512L723.121,199.957z M709.316,193.189l3.051,0.537l2.469-1.729l1.67-9.473
		l-5.15-0.905l-2.469,1.728l-1.297,7.374L709.316,193.189z"/>
</g>
<g>
	<polygon points="747.77,204.303 737.143,202.43 739.533,188.871 737.422,186.779 729.572,194.84 731.369,197.079 734.789,197.678 
		734.049,201.885 728.975,200.987 724.6,195.402 724.891,193.713 736.514,181.722 738.697,182.105 744.092,187.584 742.086,198.967 
		746.756,199.79 751.414,196.575 753.756,200.112 	"/>
</g>
<g>
	<path d="M765.766,207.476l-12.938-2.28l-3.705-5.292l1.924-10.931l5.297-3.757l6.4,1.129l3.695,5.343l-0.758,4.271l-11.9,3.136
		l1.547,2.206l9.469,1.671l4.58-3.205l2.461,3.512L765.766,207.476z M754.941,191.458l-0.547,3.111l7.422-2.037l-1.584-2.296
		l-2.859-0.505L754.941,191.458z"/>
</g>
<g>
	<path d="M786.955,224.227l-10.629-1.814l1.646-9.328l3.959-2.76l-0.078-0.014l-3.719-5.29l1.928-10.934l5.307-3.752l7.334,1.294
		l3.709,5.341l-1.982,11.226l2.264,0.4l4.578-3.206l2.459,3.504l-6.02,4.217l-4.021-0.709l-1.434,8.128L786.955,224.227z
		 M781.271,218.941l4.629,0.816l2.459-1.7l1.129-6.398l-1.646-0.289l-5.98,4.235L781.271,218.941z M784.383,206.425l5.848,1.031
		l1.666-9.472l-1.725-2.47l-3.748-0.659l-2.471,1.729l-1.299,7.371L784.383,206.425z"/>
</g>
<g>
	<path d="M815.707,216.28l-12.938-2.283l-3.709-5.289l1.93-10.929l5.297-3.758l6.398,1.129l3.691,5.342l-0.752,4.274l-11.902,3.132
		l1.547,2.208l9.469,1.669l4.582-3.207l2.461,3.517L815.707,216.28z M804.883,200.268l-0.549,3.109l7.424-2.037l-1.584-2.298
		l-2.857-0.503L804.883,200.268z"/>
</g>
<g>
	<polygon points="829.82,218.771 820.811,217.182 817.107,211.891 819.094,200.616 816.037,200.076 816.781,195.871 
		819.836,196.413 821.971,184.311 826.172,185.047 824.039,197.152 831.291,198.432 830.553,202.636 823.299,201.358 
		821.621,210.872 823.312,213.289 828.852,214.264 833.434,211.059 835.891,214.573 	"/>
</g>
<g>
	<polygon points="843.934,221.257 834.926,219.671 831.221,214.378 833.207,203.104 830.15,202.564 830.891,198.365 
		833.949,198.902 836.084,186.803 840.287,187.533 838.152,199.642 845.406,200.921 844.662,205.125 837.412,203.845 
		835.734,213.362 837.426,215.778 842.965,216.753 847.547,213.548 850.004,217.063 	"/>
</g>
<g>
	<path d="M855.119,223.23l-10.578-1.864l3.521-19.976l4.203,0.737l-2.781,15.775l4.666,0.824l4.582-3.206l2.457,3.509
		L855.119,223.23z M853.834,195.027l-4.945-0.873l0.871-4.946l4.945,0.873L853.834,195.027z"/>
</g>
<g>
	<polygon points="874.873,226.715 866.648,225.263 869.061,211.587 867.344,209.122 862.754,208.313 859.975,224.087 
		855.77,223.345 859.293,203.369 869.881,205.235 873.572,210.577 871.594,221.802 873.857,222.201 878.436,218.992 
		880.891,222.502 	"/>
</g>
<g>
	<path d="M885.088,241.531l-10.627-1.816l1.646-9.326l3.961-2.761l-0.082-0.013l-3.717-5.292l1.926-10.933l5.311-3.752l7.332,1.294
		l3.709,5.34l-1.98,11.228l2.264,0.399l4.576-3.208l2.457,3.506l-6.018,4.216l-4.021-0.709l-1.434,8.129L885.088,241.531z
		 M879.406,236.245l4.631,0.817l2.459-1.701l1.127-6.398l-1.645-0.29l-5.982,4.236L879.406,236.245z M882.516,223.728l5.848,1.034
		l1.668-9.474l-1.727-2.471l-3.746-0.659l-2.471,1.73l-1.301,7.372L882.516,223.728z"/>
</g>
<g>
	<polygon points="933.596,237.07 924.324,235.435 926.736,221.751 925.043,219.296 922.789,218.899 920.008,234.672 
		915.803,233.936 918.586,218.157 916.395,217.772 913.941,219.499 911.527,233.178 907.328,232.434 910.049,217.01 
		915.344,213.251 927.553,215.403 931.248,220.746 929.268,231.971 932.586,232.559 937.24,229.343 939.582,232.876 	"/>
</g>
<g>
	<path d="M955.043,240.85l-9.395-1.655l0.051-0.298l-0.342,0.246l-6.611-1.168l-3.756-5.293l1.936-10.985l5.295-3.706l11.152,1.968
		l-2.783,15.773l3.486,0.614l4.58-3.205l2.463,3.512L955.043,240.85z M941.24,234.082l3.051,0.538l2.469-1.729l1.668-9.471
		l-5.148-0.906l-2.467,1.728l-1.299,7.374L941.24,234.082z"/>
</g>
<g>
	<polygon points="979.693,245.196 969.066,243.323 971.455,229.766 969.346,227.674 961.496,235.732 963.293,237.973 
		966.715,238.57 965.971,242.778 960.896,241.882 956.523,236.296 956.816,234.607 968.438,222.617 970.619,222.998 
		976.016,228.478 974.012,239.861 978.682,240.687 983.34,237.47 985.68,241.006 	"/>
</g>
<g>
	<polygon points="1004.248,249.527 993.623,247.652 996.012,234.096 993.9,232.003 986.053,240.062 987.852,242.302 
		991.268,242.903 990.531,247.107 985.455,246.211 981.076,240.626 981.373,238.936 992.994,226.945 995.178,227.329 
		1000.57,232.809 998.566,244.189 1003.238,245.018 1007.895,241.799 1010.234,245.335 	"/>
</g>
<g>
	<path d="M1015.342,251.483l-10.578-1.865l3.523-19.976l4.201,0.743l-2.781,15.77l4.666,0.822l4.586-3.206l2.451,3.515
		L1015.342,251.483z M1014.057,223.28l-4.943-0.874l0.871-4.945l4.943,0.872L1014.057,223.28z"/>
</g>
<g>
	<path d="M1033.43,254.672l-12.936-2.28l-3.709-5.293l1.928-10.93l5.299-3.755l6.398,1.127l3.691,5.343l-0.752,4.271l-11.904,3.138
		l1.547,2.205l9.471,1.67l4.58-3.204l2.463,3.512L1033.43,254.672z M1022.607,238.657l-0.549,3.109l7.424-2.037l-1.584-2.297
		l-2.859-0.504L1022.607,238.657z"/>
</g>
<g>
	<path d="M1056.588,258.756l-5.377-0.948l-1.973-2.812l-2.771,1.975l-7.838-1.379l-3.756-5.296l1.93-10.943l5.344-3.741l7.789,1.375
		l0.279,0.398l2.193-12.442l4.207,0.736l-4.564,25.869l1.658,2.367l1.912,0.337l4.578-3.207l2.463,3.513L1056.588,258.756z
		 M1041.123,251.696l4.271,0.752l2.471-1.728l1.299-7.374l-1.729-2.469l-4.273-0.753l-2.467,1.729l-1.301,7.371L1041.123,251.696z"
		/>
</g>
<g>
	<path d="M722.771,198.358l-7.297-1.286l0.43-2.445l-2.832,2.022l-5.375-0.947l-3.031-4.273l1.719-9.743l4.266-2.988l9.045,1.595
		l-2.781,15.771l5.594,0.987l3.854-2.698l0.721,1.026L722.771,198.358z M718.256,181.3l-7.25-1.279l-3.496,2.449l-1.52,8.605
		l2.447,3.496l4.281,0.755l3.494-2.449L718.256,181.3z"/>
	<path d="M747.418,202.705l-8.521-1.501l2.264-12.846l-3.76-3.729l-9.846,10.114l2.992,3.726l2.49,0.439l-0.215,1.223l-3.016-0.531
		l-3.604-4.599l0.1-0.568l10.74-11.081l0.918,0.161l4.508,4.579l-2.137,12.103l6.775,1.195l3.896-2.691l0.678,1.02L747.418,202.705z
		"/>
	<path d="M765.414,205.877l-11.707-2.062l-2.986-4.267l1.709-9.7l4.273-3.031l5.156,0.909l2.979,4.312l-0.479,2.708l-12.092,3.184
		l-0.232,1.31l2.41,3.446l10.707,1.886l3.854-2.699l0.721,1.027L765.414,205.877z M763.521,192.347l-2.402-3.488l-4.107-0.725
		l-3.451,2.456l-1.07,6.071l10.793-2.962L763.521,192.347z"/>
	<path d="M797.357,211.511l-4.893-0.862l-1.588,9.003l-4.279,2.982l-8.516-1.457l1.273-7.209l6.445-4.496l-3.068-0.539l-3-4.27
		l1.709-9.701l4.289-3.026l6.094,1.073l2.992,4.312l-2.135,12.104l4.365,0.771l3.857-2.7l0.721,1.028L797.357,211.511z
		 M791.24,210.431l-3.758-0.66l-7.002,4.96l-0.959,5.44l6.729,1.186l3.49-2.415L791.24,210.431z M793.496,197.63l-2.447-3.496
		l-4.98-0.878l-3.494,2.448l-1.518,8.608l2.447,3.493l7.951,1.402L793.496,197.63z"/>
	<path d="M815.357,214.686l-11.709-2.065l-2.988-4.267l1.711-9.699l4.275-3.031l5.156,0.909l2.977,4.31l-0.477,2.71l-12.096,3.183
		l-0.23,1.312l2.41,3.442l10.707,1.889l3.854-2.7l0.721,1.027L815.357,214.686z M813.463,201.151l-2.402-3.488l-4.107-0.724
		l-3.451,2.455l-1.07,6.074l10.795-2.964L813.463,201.151z"/>
	<path d="M829.469,217.172l-7.777-1.369l-2.988-4.266l2.143-12.148l-3.057-0.54l0.217-1.224l3.055,0.54l2.137-12.102l1.223,0.214
		l-2.135,12.106l7.256,1.276l-0.217,1.224l-7.256-1.278l-2.049,11.621l2.412,3.445l6.771,1.193l3.857-2.697l0.721,1.025
		L829.469,217.172z"/>
	<path d="M843.584,219.662l-7.779-1.373l-2.986-4.266l2.141-12.146l-3.057-0.54l0.217-1.223l3.057,0.54l2.133-12.104l1.225,0.216
		l-2.133,12.103l7.254,1.28l-0.217,1.223l-7.254-1.279l-2.049,11.624l2.412,3.442l6.771,1.194l3.854-2.699l0.723,1.029
		L843.584,219.662z"/>
	<path d="M854.768,221.633l-8.477-1.494l2.996-16.995l1.225,0.215l-2.781,15.774l6.771,1.193l3.857-2.7l0.719,1.028L854.768,221.633
		z M850.639,192.928l0.346-1.965l1.969,0.348l-0.348,1.965L850.639,192.928z"/>
	<path d="M874.518,225.116l-6.115-1.077l2.256-12.802l-2.432-3.494l-6.699-1.183l-2.781,15.775l-1.223-0.217l2.996-16.995
		l8.477,1.495l2.979,4.31l-2.135,12.102l4.371,0.771l3.855-2.7l0.719,1.028L874.518,225.116z"/>
	<path d="M895.49,228.815l-4.893-0.862l-1.588,9.001l-4.279,2.984l-8.514-1.458l1.27-7.208l6.445-4.497l-3.066-0.539l-2.998-4.269
		l1.709-9.701l4.287-3.026l6.092,1.073l2.992,4.312l-2.135,12.104l4.369,0.769l3.855-2.699l0.721,1.029L895.49,228.815z
		 M889.373,227.734l-3.758-0.66l-7.002,4.961l-0.957,5.439l6.729,1.186l3.488-2.415L889.373,227.734z M891.631,214.934l-2.447-3.496
		l-4.98-0.878l-3.496,2.448l-1.518,8.608l2.447,3.492l7.951,1.404L891.631,214.934z"/>
	<path d="M933.242,235.472l-7.166-1.265l2.256-12.802l-2.4-3.488l-4.371-0.771l-2.781,15.774l-1.223-0.217l2.779-15.771
		l-4.299-0.759l-3.479,2.451l-2.258,12.802l-1.221-0.216l2.348-13.327l4.277-3.032l10.965,1.936l2.979,4.309l-2.135,12.104
		l5.422,0.956l3.898-2.692l0.674,1.02L933.242,235.472z"/>
	<path d="M954.699,239.254l-7.301-1.288l0.432-2.445l-2.834,2.022l-5.375-0.947l-3.027-4.274l1.715-9.743l4.268-2.986l9.043,1.596
		l-2.781,15.772l5.594,0.987l3.855-2.701l0.721,1.028L954.699,239.254z M950.18,222.194l-7.252-1.279l-3.494,2.447l-1.518,8.608
		l2.447,3.494l4.279,0.756l3.496-2.447L950.18,222.194z"/>
	<path d="M979.34,243.6l-8.523-1.503l2.268-12.846l-3.758-3.725l-9.85,10.11l2.994,3.729l2.49,0.438l-0.217,1.222l-3.014-0.529
		l-3.605-4.601l0.1-0.569l10.74-11.081l0.918,0.163l4.508,4.579l-2.133,12.104l6.773,1.193l3.896-2.691l0.676,1.021L979.34,243.6z"
		/>
	<path d="M1003.896,247.931l-8.521-1.503l2.264-12.846l-3.756-3.726l-9.848,10.111l2.992,3.727l2.49,0.438l-0.217,1.224
		l-3.016-0.532l-3.602-4.598l0.098-0.569l10.74-11.08l0.918,0.162l4.51,4.578l-2.135,12.102l6.77,1.196l3.9-2.693l0.676,1.021
		L1003.896,247.931z"/>
	<path d="M1014.99,249.887l-8.477-1.495l2.998-16.998l1.223,0.218l-2.781,15.773l6.773,1.193l3.857-2.698l0.719,1.026
		L1014.99,249.887z M1010.863,221.181l0.346-1.965l1.969,0.346l-0.348,1.967L1010.863,221.181z"/>
	<path d="M1033.084,253.076l-11.713-2.063l-2.984-4.269l1.709-9.699l4.273-3.029l5.156,0.907l2.98,4.311l-0.477,2.709l-12.096,3.183
		l-0.232,1.312l2.412,3.441l10.705,1.89l3.855-2.7l0.721,1.028L1033.084,253.076z M1031.188,239.542l-2.402-3.488l-4.107-0.726
		l-3.451,2.456l-1.07,6.074l10.793-2.961L1031.188,239.542z"/>
	<path d="M1056.24,257.158l-4.152-0.731l-2.484-3.545l-3.5,2.491l-6.6-1.165l-3.029-4.273l1.709-9.699l4.316-3.022l6.557,1.156
		l2.016,2.876l2.566-14.55l1.223,0.216l-4.408,24.994l2.377,3.393l3.146,0.554l3.852-2.7l0.723,1.027L1056.24,257.158z
		 M1050.764,242.994l-2.449-3.495l-5.504-0.972l-3.494,2.449l-1.518,8.606l2.445,3.495l5.506,0.972l3.496-2.448L1050.764,242.994z"
		/>
</g>
</svg>
